<svg xmlns="http://www.w3.org/2000/svg" viewBox="0 0 149.46 385.88"><defs><style>.cls-1{fill:#ffc433;}.cls-2{fill:#ffa333;}.cls-3{fill:#263a46;}.cls-4{fill:#feb;}.cls-5{fill:#d0d0d0;}.cls-6{fill:#626262;}.cls-7{fill:#d4d4d4;}.cls-8{fill:#f3f3f3;}.cls-9{fill:#f04d4d;}.cls-10{fill:#ff6262;}.cls-11{fill:#e0e0e0;}.cls-12{fill:#d73f3f;}.cls-13{fill:#fff;}</style></defs><g id="Layer_2" data-name="Layer 2"><g id="OBJECTS"><g id="Layer0_5_FILL" data-name="Layer0 5 FILL"><path class="cls-1" d="M116.87,306.29c-1.07,0-1.72-.85-1.94-2.51,0-1.54-.06-2.31-.06-2.34,0-1.46.13-3.12,1.12-3.12a1.24,1.24,0,0,1,.77.34c1,.82,1.46,2.38,1.46,4.63v1.55C118,306,117.38,306.29,116.87,306.29Zm-1.37-11.37a52.4,52.4,0,0,1-2.92-9.16c-.73-2.89-1.29-5.41-1.67-7.49l-1.59,2.43-.39.6-.15-.7a28.91,28.91,0,0,1-.46-3.08c-.16-1.74-.25-3.36-.25-4.83,0-2.53,0-4.19.1-4.93a29.71,29.71,0,0,1,.66-4.78c-.36.31-1,.88-2,1.87a3.9,3.9,0,0,1-.38.33l-.49.36v-.61a40.85,40.85,0,0,1,1.31-8.26c.68-2.89,1.61-6,2.76-9.38l.07-.2h11.18l.07.2a97.46,97.46,0,0,1,2.8,9.38,38.42,38.42,0,0,1,1.26,8.31l0,.92-.56-.73a3,3,0,0,0-.27-.32c-1-1-1.59-1.56-1.94-1.87a28.59,28.59,0,0,1,.65,4.79c.07.74.1,2.35.1,4.92,0,1.46-.08,3.08-.25,4.83a23.11,23.11,0,0,1-.51,3.14l-.18.72-.37-.64c-.4-.69-.91-1.52-1.56-2.51-.35,2.1-.9,4.63-1.64,7.53a51.55,51.55,0,0,1-2.92,9.16l-.27.56Zm-6.13-5.63c-.44,0-1-.24-1.14-1.36v-1.24c0-1.58.36-2.42,1.08-2.59a.78.78,0,0,1,.22,0c.89,0,1,1.4,1,2.62a2.86,2.86,0,0,1-.32,2.24A1,1,0,0,1,109.37,289.29Zm17.9-16.15c-.44,0-.85-.45-1.44-2.62a15.27,15.27,0,0,1-.56-2.63c0-.48,0-1.48.63-1.48.34,0,.69.36,1.18,1.23a8.32,8.32,0,0,1,1.29,4C128.37,272.94,127.68,273.14,127.27,273.14Zm-21.9-.9a1,1,0,0,1-1-.6c0-.35-.07-.52-.07-.55a2.9,2.9,0,0,1,1-2.18,1.12,1.12,0,0,1,.74-.38c.66,0,.66,1,.66,1.26C106.72,271.41,106.27,272.24,105.37,272.24Z"/><path class="cls-2" d="M110.37,247.39h-3.8q-1.8,5.75-4,16.4a149.72,149.72,0,0,0-2.75,17.6c1.46-1.38,2.48-2.33,3-2.85l1-.75a41.79,41.79,0,0,0-2.15,8.45c-.58,3.64-.94,6.84-1.1,9.6q2-1.62,3.3-2.8l.2-.15a14.9,14.9,0,0,0-1.2,6.2,137.67,137.67,0,0,0,1.75,15.45q1.8,11.74,11.85,31.3,9-19.56,10.65-31.9t1.4-14.85q-.26-2.5-.75-5.85a11,11,0,0,0,3,1.8,47.87,47.87,0,0,0-.8-8.65,28.22,28.22,0,0,0-2.45-8.6q.51.34,1,.75l3.15,2.9a105.7,105.7,0,0,0-2.75-17.9q-2.34-10.47-4.15-16.15h-3.7a97,97,0,0,1,2.8,9.35,38.57,38.57,0,0,1,1.25,8.25,2.72,2.72,0,0,0-.3-.35,27,27,0,0,0-2.4-2.25l-.25-.2a28.49,28.49,0,0,1,.85,5.6c.07.73.1,2.36.1,4.9,0,1.46-.08,3.06-.25,4.8a22.86,22.86,0,0,1-.5,3.1c-.46-.8-1.08-1.79-1.85-2.95a.55.55,0,0,0-.15-.2,83,83,0,0,1-1.75,8.25,51.43,51.43,0,0,1-2.9,9.1,52.28,52.28,0,0,1-2.9-9.1q-1.23-4.9-1.8-8.25a.75.75,0,0,1-.1.2c-.78,1.18-1.41,2.14-1.9,2.9a28.54,28.54,0,0,1-.45-3.05c-.16-1.74-.25-3.34-.25-4.8,0-2.54,0-4.17.1-4.9a30.06,30.06,0,0,1,.85-5.6l-.25.2a27,27,0,0,0-2.4,2.25,2.52,2.52,0,0,1-.35.3,40.46,40.46,0,0,1,1.3-8.2q1-4.34,2.75-9.35m-4,22.4c0,1.43-.35,2.15-1,2.15-.4,0-.65-.14-.75-.4s-.05-.42-.05-.45a2.55,2.55,0,0,1,1-1.95c.6-.57.9-.35.9.65m21.65,1.85c0,.8-.26,1.2-.8,1.2-.33,0-.71-.8-1.15-2.4a15.44,15.44,0,0,1-.55-2.55c0-1.54.42-1.57,1.25-.1a8,8,0,0,1,1.25,3.85m-18.7,12.75c.57-.17.85.6.85,2.3.2,1.53-.08,2.3-.85,2.3-.46,0-.75-.37-.85-1.1v-1.2c0-1.4.29-2.17.85-2.3m7.2,14.5c.9.76,1.35,2.23,1.35,4.4v1.55c-.13.76-.48,1.15-1,1.15q-1.35,0-1.65-2.25c0-1.5,0-2.27,0-2.3Q115.17,297.74,116.57,298.89Z"/></g><g id="Layer0_5_1_STROKES" data-name="Layer0 5 1 STROKES"><path class="cls-3" d="M110.46,247.87h14.42l-.51-.32c1.23,3.9,2.23,7.88,3.17,11.85,1.18,4.94,2.27,9.89,3,14.92.34,2.37.59,4.76.71,7.16l.79-.41a41.44,41.44,0,0,0-4.2-3.65c-.35-.25-1,.05-.75.53a27.89,27.89,0,0,1,2.4,8.27,45.75,45.75,0,0,1,.81,8.73l.68-.35a11.08,11.08,0,0,1-2.89-1.71.48.48,0,0,0-.79.41,40.07,40.07,0,0,1,.73,8.31c-.2,3.3-.62,6.59-1,9.87a78.46,78.46,0,0,1-1.82,9.86,107.21,107.21,0,0,1-3.36,10.52c-1.73,4.67-3.69,9.25-5.77,13.77l.91.05a146.17,146.17,0,0,1-9.71-22.54,55.89,55.89,0,0,1-2.1-8.74c-.57-3.78-1.12-7.56-1.49-11.36-.33-3.32-.54-6.84.9-10,.19-.42-.38-.9-.75-.6-1.2.93-2.32,2-3.5,2.95l.78.48a90.83,90.83,0,0,1,1.1-9.45A38.63,38.63,0,0,1,104.3,278a.51.51,0,0,0-.75-.6,44.07,44.07,0,0,0-4.17,3.68l.88.4a122.68,122.68,0,0,1,1.85-13c.94-5,2-10,3.25-14.9.5-2,1-4,1.67-6l-.4.28h3.83c.64,0,.49-1-.13-1h-3.82a.44.44,0,0,0-.39.28c-1.23,3.92-2.18,7.93-3.07,11.94-1.13,5.06-2.18,10.16-3,15.29-.34,2.29-.63,4.59-.82,6.89a.51.51,0,0,0,.88.4,40.12,40.12,0,0,1,4-3.51l-.75-.61a38.67,38.67,0,0,0-2.16,8.48,92.78,92.78,0,0,0-1.15,9.69c0,.38.44.77.79.49,1.18-1,2.3-2,3.5-2.95l-.75-.61c-1.31,2.84-1.33,6.05-1.09,9.1.28,3.53.78,7.05,1.29,10.56a68.52,68.52,0,0,0,2,9.52,101.88,101.88,0,0,0,3.7,10.3c2,4.7,4.17,9.31,6.5,13.84a.5.5,0,0,0,.91,0,152.09,152.09,0,0,0,8.88-23.32,71.81,71.81,0,0,0,1.91-9.31c.47-3.61.94-7.22,1.21-10.85a27.56,27.56,0,0,0,.11-3.15c-.1-2.06-.48-4.14-.78-6.19l-.79.41a12.13,12.13,0,0,0,3.12,1.85.47.47,0,0,0,.67-.36,48.38,48.38,0,0,0-.81-9,28.61,28.61,0,0,0-2.47-8.51l-.76.53a44.1,44.1,0,0,1,4.2,3.65.48.48,0,0,0,.79-.41,95.09,95.09,0,0,0-1.8-13.54c-1-4.93-2.15-9.82-3.42-14.68-.53-2-1.09-4-1.71-6a.53.53,0,0,0-.52-.33H110.33C109.69,246.9,109.85,247.87,110.46,247.87Z"/></g><g id="Layer0_6_FILL" data-name="Layer0 6 FILL"><path class="cls-1" d="M35.57,306.29c-1.07,0-1.72-.85-2-2.51,0-1.54,0-2.31,0-2.34,0-1.46.13-3.12,1.12-3.12a1.24,1.24,0,0,1,.77.34c1,.83,1.46,2.35,1.46,4.63v1.55C36.72,306,36.08,306.29,35.57,306.29ZM34.2,294.92a52.4,52.4,0,0,1-2.92-9.16c-.73-2.89-1.29-5.41-1.67-7.49L28,280.7l-.39.6-.15-.7a28.91,28.91,0,0,1-.46-3.08c-.16-1.74-.25-3.36-.25-4.83,0-2.57,0-4.18.1-4.93a29.71,29.71,0,0,1,.66-4.78c-.36.31-1,.88-2,1.87a3.9,3.9,0,0,1-.38.33l-.49.36v-.61A41.06,41.06,0,0,1,26,256.67c.68-2.88,1.61-6,2.76-9.38l.07-.2H40l.07.2a97.46,97.46,0,0,1,2.8,9.38A38.42,38.42,0,0,1,44.17,265l0,.92-.56-.73a3,3,0,0,0-.27-.32c-1-1-1.59-1.56-1.94-1.87a28.59,28.59,0,0,1,.65,4.79c.07.74.1,2.35.1,4.92,0,1.47-.08,3.09-.25,4.83a21.88,21.88,0,0,1-.51,3.14l-.18.72-.37-.64c-.4-.69-.92-1.53-1.56-2.51-.35,2.1-.9,4.63-1.64,7.53a51.55,51.55,0,0,1-2.92,9.16l-.27.56Zm-6.13-5.63c-.44,0-1-.24-1.15-1.36v-1.24c0-1.58.36-2.42,1.08-2.59a.78.78,0,0,1,.22,0c.89,0,1,1.4,1,2.62a2.86,2.86,0,0,1-.32,2.24A1,1,0,0,1,28.07,289.29ZM46,273.14c-.44,0-.85-.45-1.44-2.62a12.81,12.81,0,0,1-.56-2.63c0-.48,0-1.48.63-1.48.34,0,.69.36,1.18,1.23a8.32,8.32,0,0,1,1.29,4C47.07,272.94,46.38,273.14,46,273.14Zm-21.9-.9a1,1,0,0,1-1-.6c-.05-.35-.07-.52-.07-.55A2.9,2.9,0,0,1,24,268.91a1.12,1.12,0,0,1,.74-.38c.66,0,.66,1,.66,1.26C25.42,271.41,25,272.24,24.07,272.24Z"/><path class="cls-2" d="M29.07,247.39h-3.8q-1.8,5.75-4.05,16.4a149.72,149.72,0,0,0-2.75,17.6c1.46-1.38,2.48-2.33,3.05-2.85l1-.75a41.79,41.79,0,0,0-2.15,8.45,94.74,94.74,0,0,0-1.1,9.6q2-1.62,3.3-2.8l.2-.15a14.9,14.9,0,0,0-1.2,6.2,137.67,137.67,0,0,0,1.75,15.45q1.8,11.74,11.85,31.3,9-19.56,10.65-31.9t1.4-14.85q-.26-2.5-.75-5.85a11,11,0,0,0,3,1.8,47.87,47.87,0,0,0-.8-8.65,28.22,28.22,0,0,0-2.45-8.6q.51.34,1.05.75l3.15,2.9a105.7,105.7,0,0,0-2.75-17.9q-2.34-10.47-4.15-16.15h-3.7a97,97,0,0,1,2.8,9.35A38.57,38.57,0,0,1,43.87,265a2.72,2.72,0,0,0-.3-.35,27,27,0,0,0-2.4-2.25l-.25-.2a28.49,28.49,0,0,1,.85,5.6c.07.73.1,2.36.1,4.9,0,1.46-.08,3.06-.25,4.8a22.86,22.86,0,0,1-.5,3.1c-.46-.8-1.08-1.79-1.85-2.95a.55.55,0,0,0-.15-.2,83,83,0,0,1-1.75,8.25,51.43,51.43,0,0,1-2.9,9.1,52.28,52.28,0,0,1-2.9-9.1q-1.23-4.9-1.8-8.25a.75.75,0,0,1-.1.2c-.78,1.18-1.41,2.14-1.9,2.9a28.54,28.54,0,0,1-.45-3.05c-.16-1.74-.25-3.34-.25-4.8,0-2.54,0-4.17.1-4.9a30.06,30.06,0,0,1,.85-5.6l-.25.2a27,27,0,0,0-2.4,2.25,2.52,2.52,0,0,1-.35.3,40.46,40.46,0,0,1,1.3-8.2q1-4.34,2.75-9.35m-.15,39.3c.2,1.53-.08,2.3-.85,2.3-.46,0-.75-.37-.85-1.1v-1.2c0-1.4.29-2.17.85-2.3s.85.6.85,2.3m4.95,14.75q0-3.7,1.4-2.55c.9.76,1.35,2.23,1.35,4.4v1.55c-.13.76-.48,1.15-1,1.15q-1.35,0-1.65-2.25c0-1.5-.05-2.27-.05-2.3m12.9-29.8c0,.8-.26,1.2-.8,1.2-.33,0-.71-.8-1.15-2.4a15.44,15.44,0,0,1-.55-2.55c0-1.54.42-1.57,1.25-.1a8,8,0,0,1,1.25,3.85m-21.65-1.85c0,1.43-.35,2.15-1.05,2.15-.4,0-.65-.14-.75-.4s-.05-.42-.05-.45a2.55,2.55,0,0,1,.95-1.95C24.82,268.57,25.12,268.79,25.12,269.79Z"/></g><g id="Layer0_6_1_STROKES" data-name="Layer0 6 1 STROKES"><path class="cls-3" d="M29.16,247.87H43.58l-.51-.32c1.24,3.9,2.23,7.87,3.17,11.85,1.18,4.94,2.27,9.89,3,14.92.34,2.37.59,4.76.72,7.16l.78-.41a42.73,42.73,0,0,0-4.2-3.65c-.35-.25-1,.05-.75.53a27.89,27.89,0,0,1,2.4,8.27A46.59,46.59,0,0,1,49,295l.67-.35a11.08,11.08,0,0,1-2.89-1.71.48.48,0,0,0-.78.41,40.06,40.06,0,0,1,.72,8.31c-.2,3.3-.62,6.59-1,9.87a78.46,78.46,0,0,1-1.82,9.86,107.21,107.21,0,0,1-3.36,10.52c-1.73,4.67-3.69,9.25-5.77,13.77l.91.05a146.17,146.17,0,0,1-9.71-22.54,55.89,55.89,0,0,1-2.1-8.74c-.58-3.77-1.12-7.56-1.49-11.36-.33-3.32-.54-6.84.9-10a.51.51,0,0,0-.75-.6c-1.2.93-2.32,2-3.5,2.95l.78.48a90.83,90.83,0,0,1,1.1-9.45A38.63,38.63,0,0,1,23,278a.51.51,0,0,0-.75-.6,44.07,44.07,0,0,0-4.17,3.68l.88.4a123.32,123.32,0,0,1,1.88-13.12c.93-4.94,2-9.86,3.21-14.73.51-2,1.05-4,1.68-6l-.4.28h3.83c.64,0,.48-1-.13-1H25.21a.44.44,0,0,0-.39.28c-1.23,3.92-2.18,7.93-3.07,11.93-1.13,5-2.16,10.11-2.93,15.22-.35,2.31-.65,4.64-.83,7a.5.5,0,0,0,.87.4,40.12,40.12,0,0,1,4-3.51l-.75-.61a39.24,39.24,0,0,0-2.16,8.48,90.14,90.14,0,0,0-1.14,9.69c0,.38.43.77.78.49,1.18-1,2.3-2,3.5-2.95l-.75-.61c-1.31,2.84-1.33,6.05-1.09,9.1.28,3.53.78,7.05,1.29,10.56a68.82,68.82,0,0,0,2,9.52,100.84,100.84,0,0,0,3.7,10.29c2,4.71,4.17,9.31,6.5,13.85a.5.5,0,0,0,.91,0,153.13,153.13,0,0,0,8.88-23.32,70.15,70.15,0,0,0,1.9-9.31c.48-3.61,1-7.22,1.22-10.85a27.46,27.46,0,0,0,.11-3.14c-.1-2.07-.48-4.15-.78-6.2l-.79.41a12.3,12.3,0,0,0,3.12,1.85.47.47,0,0,0,.67-.36,48.38,48.38,0,0,0-.81-9,28.61,28.61,0,0,0-2.47-8.51l-.76.53a42.73,42.73,0,0,1,4.2,3.65.48.48,0,0,0,.79-.41,95.09,95.09,0,0,0-1.8-13.54c-1-4.93-2.15-9.82-3.43-14.68-.52-2-1.08-4-1.7-6a.53.53,0,0,0-.52-.33H29C28.39,246.9,28.55,247.87,29.16,247.87Z"/></g><g id="Layer0_7_MEMBER_0_FILL" data-name="Layer0 7 MEMBER 0 FILL"><path class="cls-4" d="M34.49,243.21c-3.85,0-7.5-.11-10.84-.32l-2.57-.23L21,239.19l.34.05a50.49,50.49,0,0,0,6.51.35c6.1,0,10.77-.72,13.88-2.13a43.89,43.89,0,0,0,5.41-3.08l.47-.3v.56c0,2.63-.08,5.27-.15,7.9v.29h-.29c-.82,0-1.64.08-2.43.15C41.16,243.14,37.71,243.21,34.49,243.21Z"/><path class="cls-5" d="M47.07,71.44a39.55,39.55,0,0,0-12.15-1.9v80.1A93.23,93.23,0,0,1,28.42,169q-4.05,8.55-7.75,12.4.15,29,.65,58.15a51.06,51.06,0,0,0,6.55.35q9.25,0,14-2.15a45.06,45.06,0,0,0,5.45-3.1Q49.16,153,47.07,71.44Z"/><path class="cls-6" d="M46.52,248.84a3.8,3.8,0,0,0,0-3.7H21.82a5.13,5.13,0,0,0,0,3.7Q34.07,249.33,46.52,248.84Z"/><path class="cls-7" d="M23.67,242.59v2.55h21v-2.45A199.4,199.4,0,0,1,23.67,242.59Z"/><path class="cls-8" d="M34.92,69.54c-.8,0-1.6,0-2.4,0a47.73,47.73,0,0,0-11.05,1.85q-1,54.5-.8,110,3.7-3.85,7.75-12.4a93.23,93.23,0,0,0,6.5-19.35Z"/><path class="cls-9" d="M41.57,46.19q-4.09-6.51-6.65-7.1V69.54a39.55,39.55,0,0,1,12.15,1.9Q46.13,53.38,41.57,46.19Z"/><path class="cls-10" d="M34.92,39.09a1.65,1.65,0,0,0-.55-.1q-2.64,0-7.2,7t-5.6,23.6c0,.6-.06,1.21-.1,1.85a47.73,47.73,0,0,1,11.05-1.85c.8,0,1.6,0,2.4,0Z"/></g><g id="Layer0_7_MEMBER_0_1_STROKES" data-name="Layer0 7 MEMBER 0 1 STROKES"><path class="cls-3" d="M21.91,71.58c.37-7,1-14.2,3.48-20.79a28.3,28.3,0,0,1,4.43-7.68c1.22-1.55,3.42-4.53,5.72-3.42a9.37,9.37,0,0,1,2.84,2.59,35.41,35.41,0,0,1,3.12,4.47,28.23,28.23,0,0,1,2.7,6.87c2,7.25,2.36,14.83,2.55,22.29q.64,26.64.87,53.28t.05,53.28c-.13,17.76-.43,35.52-.79,53.28l-.15,6.65.21-.27-2.45.15a.25.25,0,0,0-.21.27V245a.64.64,0,0,0,.57.55h1.8l-.55-.45c.34.82.92,2.7,0,3.28a4.64,4.64,0,0,1-1.94.13l-1.66.05q-3.51.1-7,.12-6.87,0-13.74-.25l.55.45a5.16,5.16,0,0,1,0-3.51l-.3.18H23.8c.17,0,.31-.08.31-.27v-2.55a.64.64,0,0,0-.56-.55l-2.3-.2.56.55q-.6-33.43-.72-66.86t.26-66.76q.21-18.66.56-37.33l-.21.26a44.43,44.43,0,0,1,25.39,0c.62.2.42-.63,0-.77a45.21,45.21,0,0,0-25.82,0,.26.26,0,0,0-.21.27q-.64,33.28-.8,66.57t.17,66.79q.2,18.79.53,37.59a.66.66,0,0,0,.57.55l2.3.2-.57-.55V245l.32-.27H21.7c-.14,0-.26,0-.31.17a5.8,5.8,0,0,0,0,3.9.67.67,0,0,0,.55.45q12.39.5,24.8,0c.1,0,.16-.09.2-.17a4.33,4.33,0,0,0,0-3.89.67.67,0,0,0-.55-.45H44.6l.56.55v-2.45l-.21.26c.82-.06,1.63-.11,2.45-.15a.24.24,0,0,0,.21-.26q.68-27.66.91-55.31t0-55.17q-.21-27.58-.88-55.17c-.18-7.69-.54-15.47-2.49-22.94A30.3,30.3,0,0,0,42.45,47a24.15,24.15,0,0,0-5.66-7.26,4.62,4.62,0,0,0-2.61-1.12,4.09,4.09,0,0,0-2.38,1A23.55,23.55,0,0,0,26,46.94c-3,5.51-3.93,12.08-4.55,18.23-.21,2-.35,4.08-.46,6.13,0,.42.86.83.88.28Z"/><path class="cls-3" d="M44.49,242.28a197.66,197.66,0,0,1-20.94-.1c-.61,0-.18.79.25.82a198.94,198.94,0,0,0,21.15.09c.52,0,0-.82-.46-.81Z"/><path class="cls-3" d="M44.6,244.73h-21c-.61,0-.19.82.25.82H44.85c.61,0,.18-.82-.25-.82Z"/></g><g id="Layer0_7_MEMBER_1_FILL" data-name="Layer0 7 MEMBER 1 FILL"><path class="cls-4" d="M114.75,243.21c-3.22,0-6.66-.07-10.24-.22-.81-.07-1.62-.12-2.45-.15h-.28v-.29l-.15-6.65v-.52l.46.26a31.61,31.61,0,0,0,5.05,2.22,22.67,22.67,0,0,0,6.11,1.24c2.71.1,7.34.18,13.75.25l1.25-.14-.06,3.46-2.57.23C122.26,243.1,118.61,243.21,114.75,243.21Z"/><path class="cls-5" d="M114.32,69.54a39.64,39.64,0,0,0-12.15,1.9q-2.11,82.23-.25,164.45a31.76,31.76,0,0,0,5.1,2.25,23.29,23.29,0,0,0,6.2,1.25q4.05.15,13.75.25l1-.1q.51-29.19.65-58.15-3.69-3.85-7.75-12.4a93.82,93.82,0,0,1-6.5-19.35Z"/><path class="cls-8" d="M116.72,69.59c-.8,0-1.6,0-2.4,0v80.1a93.82,93.82,0,0,0,6.5,19.35q4.05,8.55,7.75,12.4.26-55.45-.8-109.95A47.56,47.56,0,0,0,116.72,69.59Z"/><path class="cls-9" d="M114.32,39.09q-2.55.6-6.65,7.1-4.55,7.2-5.5,25.25a39.64,39.64,0,0,1,12.15-1.9Z"/><path class="cls-7" d="M104.52,242.69v2.45h21v-2.55A199.38,199.38,0,0,1,104.52,242.69Z"/><path class="cls-10" d="M114.87,39a1.69,1.69,0,0,0-.55.1V69.54c.8,0,1.6,0,2.4,0a47.56,47.56,0,0,1,11,1.85c0-.64-.06-1.25-.1-1.85Q126.57,53,122.07,46T114.87,39Z"/><path class="cls-6" d="M127.42,248.84a5,5,0,0,0,0-3.7h-24.7a3.85,3.85,0,0,0,0,3.7Q115.17,249.33,127.42,248.84Z"/></g><g id="Layer0_7_MEMBER_1_1_STROKES" data-name="Layer0 7 MEMBER 1 1 STROKES"><path class="cls-3" d="M114.13,38.64c-1.72.43-3.07,2-4.13,3.36a31,31,0,0,0-3.88,6,44.91,44.91,0,0,0-3.47,13c-.49,3.41-.77,6.86-1,10.3a.53.53,0,0,0,.67.55,39.94,39.94,0,0,1,12-1.88c.64,0,.44-1-.14-1A41.18,41.18,0,0,0,102,71l.67.54a91.67,91.67,0,0,1,2.1-16.42,36.63,36.63,0,0,1,1.84-5.75,28.6,28.6,0,0,1,3.24-5.49,20.11,20.11,0,0,1,2.57-3,5,5,0,0,1,2.11-1.31c.61-.15.18-1-.38-.9Z"/><path class="cls-3" d="M114.51,39.54c1.9-.5,3.85,2.15,4.82,3.38a28.47,28.47,0,0,1,3.93,6.31c2.08,4.83,2.94,10.17,3.5,15.36.76,7,.67,14.11.79,21.17s.21,14.31.29,21.47q.25,21.58.29,43.17T128,193.72q-.16,21.61-.52,43.25c0,1.77-.07,3.55-.1,5.32l.41-.37-2.3.2a.42.42,0,0,0-.41.37V245a.54.54,0,0,0,.55.57h1.85l-.51-.33a4.94,4.94,0,0,1,0,3.35l.38-.26q-12.34.49-24.7,0l.52.32a3.65,3.65,0,0,1,0-3.34l-.38.26h1.8a.43.43,0,0,0,.41-.38v-2.45a.54.54,0,0,0-.43-.56c-.85-.06-1.71-.12-2.57-.16l.55.45q-.83-33.47-1-66.94t.33-66.7q.27-18.68.75-37.34c0-.57-.94-.81-1-.19q-.85,33.55-1.06,67.13-.19,33.35.26,66.7.26,18.71.7,37.39c0,.28.32.44.55.45.78,0,1.56.08,2.33.14l-.43-.56V245l.41-.37h-1.8a.43.43,0,0,0-.38.26,4.51,4.51,0,0,0,0,4,.55.55,0,0,0,.51.33q12.36.49,24.7,0a.43.43,0,0,0,.38-.26,6,6,0,0,0,0-4.06.55.55,0,0,0-.52-.32H125.5l.55.56v-2.55l-.41.38,2.31-.2a.43.43,0,0,0,.4-.38q.39-22.22.59-44.43.19-22.38.15-44.76,0-22.22-.27-44.42-.12-11.06-.3-22.1c-.11-7.1,0-14.24-.71-21.3a57.73,57.73,0,0,0-3.39-15.87,28.52,28.52,0,0,0-3.5-6.11c-1.24-1.69-2.72-3.68-4.66-4.61a3,3,0,0,0-2.13-.24c-.6.16-.18,1,.38.9Z"/><path class="cls-3" d="M114.39,70a49.23,49.23,0,0,1,13.33,1.89c.62.18.68-.76.1-.93a50.19,50.19,0,0,0-13.57-1.91c-.64,0-.44,1,.14,1Z"/><path class="cls-3" d="M104.59,243.16a199.72,199.72,0,0,0,21-.1c.64,0,.45-1-.14-.94a199.74,199.74,0,0,1-21,.1c-.64,0-.44.92.14.94Z"/><path class="cls-3" d="M104.59,245.61h21c.64,0,.44-.94-.14-.94h-21c-.64,0-.44.94.14.94Z"/></g><g id="Layer0_7_MEMBER_2_FILL" data-name="Layer0 7 MEMBER 2 FILL"><path class="cls-10" d="M87,16.79a35.92,35.92,0,0,0-24.5,0Q57.67,26,54.22,33.94a72.41,72.41,0,0,1,41,0Q91.77,26,87,16.79Z"/><path class="cls-5" d="M54.22,33.94Q47.58,49.36,46,60.34q-1.8,12.3-6.5,161.9H110q-4.69-149.61-6.5-161.9-1.59-11-8.25-26.4a72.41,72.41,0,0,0-41,0m8.25-17.15a35.92,35.92,0,0,1,24.5,0q-3.31-6.36-7.3-13.3c-1.6-2.34-3.25-3.3-5-2.9-1.7-.4-3.35.56-5,2.9Q65.8,10.42,62.47,16.79Z"/></g><g id="Layer0_7_MEMBER_2_1_STROKES" data-name="Layer0 7 MEMBER 2 1 STROKES"><path class="cls-3" d="M53.77,33.73c-4.18,9.73-7.84,19.9-8.68,30.53-.48,6-.76,12-1.05,18-.5,10.33-.92,20.67-1.33,31q-.85,22-1.59,44-1,28.5-1.88,57-.12,3.94-.25,7.87a.55.55,0,0,0,.56.57h70.5a.44.44,0,0,0,.4-.5q-1-32.76-2.15-65.53-.84-24.39-1.79-48.78c-.43-10.67-.87-21.35-1.44-32-.27-5.08-.41-10.23-1.08-15.28a72.39,72.39,0,0,0-2.42-10.78A124.28,124.28,0,0,0,95.84,34.2c-.47-1-1.65-1-2.68-1.3q-2.31-.6-4.65-1a73,73,0,0,0-8.58-1.15,72.07,72.07,0,0,0-17.54.87A77.23,77.23,0,0,0,54,33.49l.64.66A300.84,300.84,0,0,1,69,5.93C70,4,71.46,1,74,1a7.2,7.2,0,0,1,2.54.21,6.83,6.83,0,0,1,3,3c2.69,4.54,5.16,9.23,7.59,13.91,2.72,5.24,5.29,10.56,7.64,16,.24.55,1.14.31.88-.29-2.29-5.28-4.8-10.47-7.44-15.59-1.3-2.53-2.63-5-4-7.52s-2.65-5.06-4.17-7.45C79.05,1.67,77.39,0,75.41,0S72,.21,70.59,1.68c-1.91,1.94-3.08,4.76-4.39,7.13s-2.69,4.93-4,7.42c-3,5.74-5.85,11.56-8.43,17.5-.17.38.28.76.64.66a73.73,73.73,0,0,1,40.76,0l-.39-.32c4.18,9.72,7.8,19.85,8.63,30.46.47,6,.76,12,1,18,.5,10.37.92,20.74,1.33,31.1q.85,22,1.59,43.91,1,28.41,1.87,56.81.12,3.95.25,7.87l.4-.49H39.4l.55.56q.91-29.28,1.91-58.57.77-22.66,1.62-45.32c.42-10.89.85-21.79,1.36-32.69.31-6.55.61-13.11,1.08-19.65.12-1.67.24-3.35.44-5,.83-6.81,3-13.5,5.45-19.89.9-2.37,1.86-4.72,2.86-7.05.23-.53-.66-1-.9-.42Z"/><path class="cls-3" d="M62.66,17.24a34.91,34.91,0,0,1,11.79-2.13,38.68,38.68,0,0,1,12.35,2.1c.61.2.93-.65.34-.84a39.81,39.81,0,0,0-12.61-2.2,35.81,35.81,0,0,0-12.25,2.17c-.59.21-.16,1.09.38.9Z"/></g><g id="Layer0_7_MEMBER_3_FILL" data-name="Layer0 7 MEMBER 3 FILL"><path class="cls-11" d="M84,238.29c-1.29,0-3.52,0-6.61-.15h-.31l.67-10.86.2-3.15c.22-1.86-.33-2.91-1.67-3.24a6.53,6.53,0,0,0-1.37-.15,5.77,5.77,0,0,0-1.62.24c-1.33.43-1.93,1.52-1.84,3.35L72,238h-.33l-4.6-.15c-6.75-.27-10.39-.49-11.15-.66a12.24,12.24,0,0,1-6.1-3.28l-.09-.08V230c-3.81.09-7.33.16-10.5.19-8,.1-14.25.15-18.7.15-2.07,0-3.79,0-5.15,0-5.57-.1-9.72-.58-12.34-1.42A4,4,0,0,1,.53,227a4.16,4.16,0,0,1,0-3.28l.07-.2H.92c8.22.3,12.89.45,13.9.45,6,0,10.43-1.25,13.1-3.72a13.94,13.94,0,0,0,3.47-5.59l.07-.19h19v.3c0,3,0,6,0,9v2.87a5.31,5.31,0,0,0,.88.34,19.81,19.81,0,0,0,3.5.59,27.74,27.74,0,0,0,6.12.55,16.34,16.34,0,0,0,4.17-.39,4.12,4.12,0,0,0,3-3.52,7.58,7.58,0,0,1,2-4.32,7.72,7.72,0,0,1,4.11-1.52,1.27,1.27,0,0,1,.39,0,1.77,1.77,0,0,1,.43.06,9.21,9.21,0,0,1,1.81.35,6.08,6.08,0,0,1,2.26,1.16,7.58,7.58,0,0,1,2,4.32,4.09,4.09,0,0,0,3,3.52,16.25,16.25,0,0,0,4.16.39,27.66,27.66,0,0,0,6.08-.54,19.94,19.94,0,0,0,3.53-.6,4.74,4.74,0,0,0,1-.43l.09,0C99,224,99,221.47,99,219c0-1.43,0-2.87,0-4.3v-.3h18.66l.07.19a13.94,13.94,0,0,0,3.47,5.59c2.67,2.47,7.08,3.72,13.1,3.72,1,0,5.88-.17,14.39-.5h.22l.08.21a4.23,4.23,0,0,1,0,3.32,4,4,0,0,1-2.58,1.86c-2.61.84-6.78,1.32-12.38,1.42-1.58,0-3.67,0-6.22,0-6.31,0-15.76-.11-28.09-.35,0,1.77,0,3.57,0,5.39v.3l-.17.08A22.26,22.26,0,0,1,95.49,237,48.91,48.91,0,0,1,84,238.29Zm14.91-27.65v-.3c-.13-12.6-.3-24.62-.5-35.75-.2-13.69-.48-26.62-.85-38.44l.56-.16q7.8,13.35,13.75,23.5l0,0v.07c.79,7.67,1.5,16.24,2.1,25.46.76,11.9,1.42,19.59,2,22.87.13.81.28,1.6.44,2.33l.09.37Zm-66.28,0,.08-.37c.17-.73.32-1.51.45-2.33.33-2.11.73-6.11,1.19-11.88q.36-4.69.75-11c.57-8.9,1.26-17.22,2-24.71v-.07l0,0Q43.22,149.83,51.31,136l.56.16C51.51,148,51.22,161,51,174.59c-.2,11.2-.35,23.23-.45,35.75v.3Z"/><path class="cls-12" d="M98.92,215v-.3c0-1.47,0-2.93,0-4.4V210h17.44l0,.23a33,33,0,0,0,1.29,4.36l.16.41Zm-67.68,0,.15-.41a31.54,31.54,0,0,0,1.29-4.36l0-.23H50.59l0,.31c-.06,1.46-.1,2.93-.1,4.39v.3Z"/><path class="cls-4" d="M77.09,237.53h.29c3.09.1,5.3.15,6.59.15a48.32,48.32,0,0,0,11.38-1.24,21.55,21.55,0,0,0,4-1.29l.42-.19v.46c0,3.32-1.74,5-5.29,5.16l-1.23.1h-.33c-4.18.23-8.44.4-12.64.5h-.31c-.93,0-1.84,0-2.74.05h-.33Zm-5.23,3.71c-1,0-2-.05-3-.05-4.37-.1-8.73-.29-13-.55h-.48c-3.58-.25-5.47-2.16-5.65-5.69v-2l.51.49a11.65,11.65,0,0,0,5.8,3.12c.72.17,4.44.38,11,.65l4.6.15H72l.18,3.9Z"/><path class="cls-10" d="M76.32,220.59a6.17,6.17,0,0,0-3.15.1c-1.46.46-2.15,1.68-2,3.65l.6,13.3.15,3.3.5,12.85c1.2,2.5,2.54,2.55,4,.15l.8-13,.2-3.1L78,227.29l.2-3.15c.24-2-.4-3.19-1.9-3.55m67.55-5.85q-1.14-2-2.55-4.4H116.07a32.13,32.13,0,0,0,1.3,4.4h26.5m-112.2,0a30.79,30.79,0,0,0,1.3-4.4H8.12l-2.5,4.4H31.67M70,72.94q-1.24,1.74-3.1,4.2-3.6,5-7.1,10,15.85-9.21,29.8,0-3.5-5-7.1-10l-3.15-4.2Q74.63,67.18,70,72.94Z"/><path class="cls-11" d="M51.22,227.29a5.32,5.32,0,0,1-1.1-.45c0,.9,0,1.81,0,2.75v4a12,12,0,0,0,6,3.2q1.11.24,11.1.65l4.6.15-.6-13.3c-.1-2,.59-3.19,2-3.65a6.17,6.17,0,0,1,3.15-.1c1.5.36,2.14,1.55,1.9,3.55l-.2,3.15-.65,10.55c3.1.1,5.31.15,6.6.15a48.32,48.32,0,0,0,11.45-1.25,22.39,22.39,0,0,0,4-1.3v-.1c0-1.94,0-3.84,0-5.7v-2.9a1.18,1.18,0,0,0-.25.1,4.9,4.9,0,0,1-1.1.45,20,20,0,0,1-3.55.6,28.28,28.28,0,0,1-6.15.55,17,17,0,0,1-4.25-.4,4.46,4.46,0,0,1-3.2-3.75,7.17,7.17,0,0,0-2-4.15,5.51,5.51,0,0,0-2.15-1.1,8.33,8.33,0,0,0-1.8-.35,1.18,1.18,0,0,0-.35-.05,1,1,0,0,0-.35.05,7.32,7.32,0,0,0-4,1.45,7.24,7.24,0,0,0-1.95,4.15,4.43,4.43,0,0,1-3.2,3.75,17,17,0,0,1-4.25.4,28.34,28.34,0,0,1-6.15-.55,20.19,20.19,0,0,1-3.55-.6m-1.1-.45v-3.05q0-4.6.05-9H31.67a14.1,14.1,0,0,1-3.55,5.7q-4.1,3.8-13.3,3.8-1.5,0-13.9-.45H.82q-1.24,3.65,2.35,4.75,3.9,1.25,12.25,1.4c1.37,0,3.09.05,5.15.05q6.7,0,18.7-.15c3.3,0,6.9-.1,10.8-.2v0c0-.94,0-1.85,0-2.75M35.37,185.09c-.26,4.2-.51,7.86-.75,11q-.69,8.7-1.2,11.9c-.13.83-.28,1.61-.45,2.35h17.3q.15-18.85.45-35.75.3-20.55.85-38.45Q43.47,150,37.42,160.39q-1.2,11.3-2.05,24.7m78.3,0q-.9-13.86-2.1-25.45-6-10.15-13.75-23.5.56,17.85.85,38.45.3,16.89.5,35.75h16.9c-.16-.74-.31-1.52-.45-2.35q-.8-5-2-22.9m32.6,43.45q3.66-1.11,2.35-4.8-12.84.49-14.4.5-9.19,0-13.3-3.8a14.21,14.21,0,0,1-3.55-5.7H99.22c0,1.43,0,2.86,0,4.3,0,2.53,0,5.1.1,7.7v2.9q26.31.5,34.6.3T146.27,228.54Z"/><path class="cls-6" d="M79.92,246.09h-.8a4.82,4.82,0,0,0,0,3.35,107.77,107.77,0,0,0,14.6,0,5.19,5.19,0,0,0,0-3.35h-.85a77.77,77.77,0,0,1-13,0m-24-.3h-.85a5.33,5.33,0,0,0,0,3.35,107.77,107.77,0,0,0,14.6,0,4.82,4.82,0,0,0,0-3.35h-.8a77.77,77.77,0,0,1-13,0m1.45-126.1a1.11,1.11,0,0,0-.25-.75,1,1,0,0,0-.7-.3,1,1,0,0,0-.75.3.85.85,0,0,0-.3.7q-1.09,50.6-.85,103a1,1,0,0,0,.3.7,1.48,1.48,0,0,0,.35.25,1.23,1.23,0,0,0,.35.05,1.06,1.06,0,0,0,.45-.1,2,2,0,0,0,.25-.2,1,1,0,0,0,.3-.7q-.24-52.35.85-102.9m35.35-.75a1,1,0,0,0-.3.75q1.11,50.55.85,102.9a1,1,0,0,0,1,1,1,1,0,0,0,.7-.3,1,1,0,0,0,.3-.7q.26-52.35-.85-102.95a.85.85,0,0,0-.3-.7,1,1,0,0,0-.7-.3.87.87,0,0,0-.7.3M74.57,102.19a21.08,21.08,0,0,1,7,.65q4.61,1.8,7.5,8.35c1.74-.37,2.9-1.65,3.5-3.85Q88.93,99.18,83.27,97c-1.67-.64-4.56-.92-8.7-.85s-7.08.21-8.75.85q-5.59,2.19-9.3,10.35a4.25,4.25,0,0,0,3.5,3.85q3-6.56,7.5-8.35A21.6,21.6,0,0,1,74.57,102.19Z"/><path class="cls-7" d="M80.22,240.89h-.3v5.2a77.77,77.77,0,0,0,13,0v-5.7q-6.34.35-12.65.5m-24.3-.55v5.45a77.77,77.77,0,0,0,13,0v-4.9Q62.33,240.74,55.92,240.34Z"/><path class="cls-12" d="M117.37,214.74a32.13,32.13,0,0,1-1.3-4.4H99.17c0,1.46,0,2.93,0,4.4h18.15m-67.2,0c0-1.47,0-2.94.1-4.4H33a30.79,30.79,0,0,1-1.3,4.4Z"/><path class="cls-8" d="M28.12,220.44a14.1,14.1,0,0,0,3.55-5.7h-26q-3.8,6.64-4.6,8.45a2.35,2.35,0,0,0-.2.6h.1q12.41.45,13.9.45,9.21,0,13.3-3.8m-7.75-31.05c-1.4,2.33-2.71,4.56-3.95,6.7q-5,8.4-8.3,14.25H33c.17-.74.32-1.52.45-2.35q.51-3.21,1.2-11.9c.24-3.14.49-6.8.75-11q.85-13.41,2.05-24.7-13.8,23.49-17,29m91.2-29.75q1.2,11.6,2.1,25.45,1.15,17.94,2,22.9c.14.83.29,1.61.45,2.35h25.25q-4.65-8.06-12.3-21-3.3-5.61-17.45-29.75M59.82,87.14c-1.26,1.8-2.5,3.6-3.7,5.4q-2.94,4.44-3.9,27.75a3,3,0,0,0-.1.75q-.3,7.24-.55,15.1Q51,154,50.72,174.59q-.3,16.89-.45,35.75c-.06,1.46-.1,2.93-.1,4.4q0,4.44-.05,9v3.05a5.32,5.32,0,0,0,1.1.45,20.19,20.19,0,0,0,3.55.6,28.34,28.34,0,0,0,6.15.55,17,17,0,0,0,4.25-.4,4.43,4.43,0,0,0,3.2-3.75,7.24,7.24,0,0,1,1.95-4.15,7.32,7.32,0,0,1,4-1.45,1,1,0,0,1,.35-.05,1.18,1.18,0,0,1,.35.05,8.33,8.33,0,0,1,1.8.35,5.51,5.51,0,0,1,2.15,1.1,7.17,7.17,0,0,1,2,4.15,4.46,4.46,0,0,0,3.2,3.75,17,17,0,0,0,4.25.4,28.28,28.28,0,0,0,6.15-.55,20,20,0,0,0,3.55-.6,4.9,4.9,0,0,0,1.1-.45,1.18,1.18,0,0,1,.25-.1c-.06-2.6-.1-5.17-.1-7.7,0-1.44,0-2.87,0-4.3s0-2.94,0-4.4q-.19-18.85-.5-35.75-.3-20.61-.85-38.45-.24-7.86-.55-15.1a4.43,4.43,0,0,0,0-.75q-1-23.31-3.9-27.75l-3.7-5.4q-14-9.21-29.8,0m21.75,15.7a21.08,21.08,0,0,0-7-.65,21.6,21.6,0,0,0-7,.65q-4.55,1.8-7.5,8.35a4.25,4.25,0,0,1-3.5-3.85q3.7-8.16,9.3-10.35,2.5-1,8.75-.85c4.14-.07,7,.21,8.7.85q5.66,2.19,9.3,10.35c-.6,2.2-1.76,3.48-3.5,3.85q-2.89-6.56-7.5-8.35m10.85,16.85a1,1,0,0,1,.3-.75.87.87,0,0,1,.7-.3,1,1,0,0,1,.7.3.85.85,0,0,1,.3.7q1.11,50.6.85,103a1,1,0,0,1-.3.7,1,1,0,0,1-.7.3,1,1,0,0,1-1-1q.26-52.35-.85-102.9m-35.3-.75a1.11,1.11,0,0,1,.25.75q-1.09,50.55-.85,102.9a1,1,0,0,1-.3.7,2,2,0,0,1-.25.2,1.06,1.06,0,0,1-.45.1,1.23,1.23,0,0,1-.35-.05,1.48,1.48,0,0,1-.35-.25,1,1,0,0,1-.3-.7q-.24-52.35.85-102.95a.85.85,0,0,1,.3-.7,1,1,0,0,1,.75-.3,1,1,0,0,1,.7.3m91.3,104.25a.11.11,0,0,0,0-.1q-.84-1.91-4.5-8.35h-26.5a14.21,14.21,0,0,0,3.55,5.7q4.11,3.8,13.3,3.8,1.56,0,14.4-.5A4.94,4.94,0,0,0,148.42,223.19Z"/></g><g id="Layer0_7_MEMBER_3_1_STROKES" data-name="Layer0 7 MEMBER 3 1 STROKES"><path class="cls-3" d="M143.48,215c1.17,2.06,2.34,4.13,3.44,6.24.71,1.35,1.73,3,1.54,4.55-.24,2-2.57,2.41-4.18,2.75a44.75,44.75,0,0,1-6.53.77c-6.86.39-13.78.2-20.65.12q-8.89-.1-17.79-.28a.44.44,0,0,0-.42.39q0,2.23,0,4.47a8.55,8.55,0,0,1-.37,3.59c-1,2.17-3.69,2.3-5.74,2.3a.45.45,0,0,0-.42.39V246a.53.53,0,0,0,.55.57h.85l-.52-.32a5.13,5.13,0,0,1,0,3l.39-.27a109.32,109.32,0,0,1-14.48,0l.39.32a4.71,4.71,0,0,1,0-3l-.39.28H80a.45.45,0,0,0,.42-.4V241a.53.53,0,0,0-.55-.56c-.92,0-1.84,0-2.75.05a.45.45,0,0,0-.42.39l-.74,12a2.21,2.21,0,0,1-.83,1.88c-1.07,1-2.24-.31-2.28-1.47l-.25-6.42-.23-6a.52.52,0,0,0-.55-.44c-1,0-2-.05-3-.05a.45.45,0,0,0-.42.39v4.9a.53.53,0,0,0,.55.57h.8l-.52-.33a4.64,4.64,0,0,1,0,3l.39-.27a109.32,109.32,0,0,1-14.48,0l.39.32a5.08,5.08,0,0,1,0-3l-.39.28H56a.46.46,0,0,0,.42-.4v-5.45a.53.53,0,0,0-.55-.56c-2,0-3.94-.68-4.79-2.57a7.68,7.68,0,0,1-.51-3.22v-4.35a.52.52,0,0,0-.55-.56c-7.48.19-15,.26-22.44.32-6.38,0-12.85.28-19.19-.43a29.71,29.71,0,0,1-4.08-.69c-1.14-.28-2.56-.64-3.1-1.8-.91-1.95,1-4.62,1.88-6.28,3.28-6,6.73-11.93,10.19-17.84,5.29-9.05,10.64-18.07,16-27.12q11.09-18.84,22.08-37.74a6.21,6.21,0,0,0,.73-1.24A6.82,6.82,0,0,0,52.1,135c0-1.06.07-2.11.1-3.17.07-2,.15-4,.22-6,.15-3.85.36-7.68.59-11.52a109.1,109.1,0,0,1,1.9-16.81,16,16,0,0,1,1.4-4.28,45.51,45.51,0,0,1,2.61-3.89q1.74-2.51,3.5-5c2.31-3.27,4.67-6.5,7-9.74,1-1.4,2.08-2.95,3.73-3.68a4,4,0,0,1,4.32.82A22,22,0,0,1,81,75.9c1.23,1.62,2.42,3.28,3.6,4.94q3.54,4.95,7,10a15.72,15.72,0,0,1,2.5,4.8,45,45,0,0,1,1.19,6.12c.93,6.61,1.28,13.33,1.55,20,.17,4,.31,8,.45,12a9,9,0,0,0,.14,2.66A18.69,18.69,0,0,0,99,139c1,1.73,2,3.45,3,5.18q10.44,17.87,20.92,35.7c5.28,9,10.62,18,15.87,27,1.58,2.7,3.13,5.42,4.71,8.12l.33-.75h-26.5c-.64,0-.48,1,.13,1h26.5c.41,0,.49-.47.32-.75-5.9-10-11.75-20.07-17.64-30.1q-9.72-16.56-19.42-33.13l-5.89-10.07c-.5-.85-1-1.7-1.49-2.54a9.47,9.47,0,0,1-1.53-2.89c-.14-1-.06-2.14-.1-3.18s-.07-2.08-.11-3.13c-.27-7.6-.53-15.22-1.27-22.79-.41-4.27-.76-8.91-2.37-12.93A9.57,9.57,0,0,0,93.52,92Q91.78,89.42,90,86.87c-2.39-3.46-4.8-6.92-7.31-10.29-1.11-1.47-2.15-3.07-3.39-4.43a7.49,7.49,0,0,0-3.7-2.46c-3.18-.73-5.38,2.13-7,4.37-2.44,3.33-4.87,6.67-7.25,10-1.17,1.66-2.34,3.32-3.49,5a41.24,41.24,0,0,0-2.45,3.68A17.08,17.08,0,0,0,54,97.13a72.55,72.55,0,0,0-1.13,7.21c-.81,7.23-1.13,14.53-1.41,21.79-.07,2-.15,4-.21,6,0,1.06,0,2.13-.11,3.18a7.9,7.9,0,0,1-1.43,3q-3,5.21-6.07,10.39-5.56,9.56-11.16,19.1c-5.27,9-10.6,17.89-15.83,26.88-3.69,6.33-7.42,12.64-11,19-1.52,2.69-3.08,5.35-4.49,8.1-.93,1.82-1.81,4.29-.13,6a6.62,6.62,0,0,0,3.21,1.47,29.71,29.71,0,0,0,4.08.69,98,98,0,0,0,10.28.46c6.69,0,13.39-.05,20.09-.13,3.83-.05,7.67-.11,11.51-.21l-.55-.57c0,1.77-.05,3.54,0,5.3a6.87,6.87,0,0,0,.83,3.26c1.14,2,3.39,2.71,5.57,2.71l-.55-.57v5.45l.42-.39H55a.43.43,0,0,0-.39.27,6.29,6.29,0,0,0,0,3.72.5.5,0,0,0,.39.31,111.39,111.39,0,0,0,14.73,0,.46.46,0,0,0,.39-.28,5.75,5.75,0,0,0,0-3.71.51.51,0,0,0-.51-.32h-.8l.55.56V241l-.42.4c1,0,2,0,3,0l-.55-.45c.16,4.19.16,8.42.49,12.6A3.22,3.22,0,0,0,74,256.14c1.2.27,2.65-1.07,2.89-2.17a13.51,13.51,0,0,0,.13-2.11l.26-4.16.41-6.68-.42.4c.91,0,1.83,0,2.75,0l-.55-.57V246l.42-.39h-.8a.44.44,0,0,0-.39.27,5.71,5.71,0,0,0,0,3.72.5.5,0,0,0,.39.31,109.71,109.71,0,0,0,14.73,0,.46.46,0,0,0,.39-.28,6.26,6.26,0,0,0,0-3.71.51.51,0,0,0-.51-.32h-.85l.55.56v-5.7l-.42.4c2.24,0,5-.23,6.28-2.38a6,6,0,0,0,.69-3.07c0-1.9,0-3.8,0-5.7l-.42.4c9.62.18,19.25.37,28.88.36,3.49,0,7,0,10.47-.26a39.54,39.54,0,0,0,6.41-.88c1.61-.38,3.49-1,4.08-2.69s-.36-3.61-1.15-5.14c-1.23-2.38-2.55-4.71-3.87-7-.31-.55-1.09,0-.78.54Z"/><path class="cls-3" d="M57,107.54a22.58,22.58,0,0,1,5.45-7.88,12.3,12.3,0,0,1,3.16-2,11.43,11.43,0,0,1,3.31-.79,42,42,0,0,1,5-.22c1.76,0,3.51,0,5.26.11a15.22,15.22,0,0,1,3.61.6A10.77,10.77,0,0,1,85.93,99a21.29,21.29,0,0,1,6.19,8.49v-.37c-.49,1.72-1.4,3.18-3.23,3.6l.63.3c-1.93-4.32-5.06-8.53-10.06-9.14a31.59,31.59,0,0,0-4-.2c-1.59,0-3.18,0-4.76.09a10.45,10.45,0,0,0-5.83,2,18.21,18.21,0,0,0-5.29,7.2l.51-.27A3.86,3.86,0,0,1,57,107.3c-.09-.6-1.06-.56-1,.07A4.94,4.94,0,0,0,60,111.66a.46.46,0,0,0,.52-.27,18,18,0,0,1,4.34-6.3,9.11,9.11,0,0,1,5.3-2.28,34.16,34.16,0,0,1,3.92-.15c1.43,0,2.86,0,4.28.08a9.7,9.7,0,0,1,5.44,1.87,17,17,0,0,1,4.86,6.74.53.53,0,0,0,.64.29,4.88,4.88,0,0,0,3.36-2.94,4.76,4.76,0,0,0,.42-1.22c.06-.45-.33-1-.53-1.39a29,29,0,0,0-1.5-2.73,16.3,16.3,0,0,0-7.34-6.72,13.75,13.75,0,0,0-4.11-.85c-2.15-.18-4.32-.15-6.47-.14-3.24,0-6.56.13-9.4,1.85-3.58,2.17-5.92,5.91-7.62,9.63C55.82,107.68,56.72,108.11,57,107.54Z"/><path class="cls-3" d="M60.12,87.54A32.59,32.59,0,0,1,72,83.24a23.88,23.88,0,0,1,11.18,1.17,29,29,0,0,1,6.15,3.09c.52.35,1.13-.38.59-.73a28,28,0,0,0-11.34-4.48,26.71,26.71,0,0,0-12,1.22,38.45,38.45,0,0,0-7,3.23c-.54.31.07,1.1.59.8Z"/><path class="cls-3" d="M95.76,222.67q.1-21.76,0-43.54-.14-21.54-.5-43.06-.09-5.32-.2-10.67c0-1.77-.07-3.54-.11-5.32a1.83,1.83,0,0,0-.56-1.56,1.49,1.49,0,0,0-1.59-.23,1.53,1.53,0,0,0-.83,1.22,21,21,0,0,0,0,2.63c0,1.77.07,3.54.11,5.32.07,3.55.13,7.11.19,10.66q.36,21.58.48,43.18.06,10.83.06,21.65c0,3.65,0,7.29,0,10.94,0,1.79,0,3.58,0,5.36,0,.92,0,1.84,0,2.75a1.92,1.92,0,0,0,.61,1.76,1.48,1.48,0,0,0,2.36-1.09c0-.59-.92-.8-1-.17,0,.32-.25.65-.61.6-.55-.08-.42-.78-.42-1.17,0-.92,0-1.84,0-2.75,0-1.75,0-3.49,0-5.24q0-5.16,0-10.32,0-10.34,0-20.66-.1-20.28-.42-40.54-.15-10.11-.37-20.23a18.1,18.1,0,0,1,0-2.44c0-.33.2-.69.6-.63s.42.67.43,1c0,1.69.07,3.38.1,5.07.07,3.4.14,6.79.2,10.19q.34,20.28.49,40.58.15,20.69.07,41.38c0,1.71,0,3.42,0,5.12C94.78,223.1,95.75,223.3,95.76,222.67Z"/><path class="cls-3" d="M116.14,210.82h25.25c.64,0,.47-1-.13-1H116c-.64,0-.48,1,.13,1Z"/><path class="cls-3" d="M97.34,136.17q.43,14.13.68,28.27.27,14.49.46,29,.12,8.46.21,16.93c0,.28.31.45.55.45h16.9c.64,0,.47-1-.13-1H99.11l.55.44q-.16-14.76-.4-29.53c-.16-9.71-.31-19.43-.53-29.14-.13-5.18-.26-10.35-.42-15.53,0-.61-1-.56-1,.07Z"/><path class="cls-3" d="M117.31,214.26H99.16a.45.45,0,0,0-.42.39c0,5,.15,9.93.15,14.9,0,.6,1,.8,1,.17,0-5-.15-9.93-.15-14.9l-.42.4h18.15c.64,0,.47-1-.13-1Z"/><path class="cls-3" d="M57,222.67q-.1-21.82,0-43.66.12-21.51.5-43,.09-5.34.2-10.66c0-1.77.08-3.54.11-5.31a1.77,1.77,0,0,0-.56-1.56,1.55,1.55,0,0,0-1.54-.17,1.44,1.44,0,0,0-.86,1.26c-.09.88,0,1.78-.06,2.66,0,1.77-.07,3.55-.11,5.32q-.11,5.34-.19,10.68-.36,21.54-.48,43.09Q54,192.18,54,203.07q0,5.48,0,11c0,1.83,0,3.65,0,5.48,0,.92,0,1.84,0,2.75a1.71,1.71,0,0,0,.59,1.5A1.48,1.48,0,0,0,57,222.67c0-.59-.92-.8-1-.17,0,.32-.27.69-.65.6s-.38-.58-.39-.92c0-.92,0-1.84,0-2.75,0-1.75,0-3.49,0-5.24,0-3.48,0-7,0-10.45q0-10.28,0-20.54.1-20.47.43-40.93.15-10.07.37-20.13a19.55,19.55,0,0,1,0-2.42c0-.32.24-.69.66-.6s.36.82.35,1.2c0,1.66-.07,3.31-.1,5q-.1,5-.19,10.05-.36,20.4-.5,40.8-.13,20.63-.06,41.25c0,1.71,0,3.42,0,5.12C56,223.1,57,223.3,57,222.67Z"/><path class="cls-3" d="M33,210.82h17.3a.45.45,0,0,0,.42-.4q.12-14.76.34-29.53c.16-9.7.31-19.41.54-29.12q.18-7.77.42-15.55c0-.59-1-.8-1-.17q-.44,14.14-.69,28.28-.26,14.49-.44,29-.1,8.48-.17,16.94l.42-.39H32.91c-.64,0-.48,1,.13,1Z"/><path class="cls-3" d="M49.79,210.25c-.24,5.49-.15,11-.15,16.5,0,.6,1,.8,1,.17,0-5.49-.09-11,.15-16.5,0-.59-.95-.8-1-.17Z"/><path class="cls-3" d="M31.74,215.22h18.5c.64,0,.47-1-.13-1H31.61c-.64,0-.48,1,.13,1Z"/><path class="cls-3" d="M49.64,226.75c0,.93,0,1.87,0,2.8a.52.52,0,0,0,.42.56c.23,0,.55-.11.55-.39,0-.93,0-1.86,0-2.8a.53.53,0,0,0-.43-.56.46.46,0,0,0-.54.39Z"/><path class="cls-3" d="M72.21,237.63c-.2-4.4-.41-8.8-.6-13.19a4.91,4.91,0,0,1,.2-1.83A2.59,2.59,0,0,1,74,221c1-.17,2.56-.19,3.29.7a3.39,3.39,0,0,1,.41,2.46c-.14,1.91-.24,3.83-.36,5.75l-.48,7.85c0,.6.93.81,1,.17.28-4.54.48-9.1.84-13.64a4.76,4.76,0,0,0-.33-2.69,3,3,0,0,0-2.21-1.52c-2.16-.4-4.78.14-5.38,2.54a10.25,10.25,0,0,0-.09,3l.19,4.15.36,8a.49.49,0,0,0,1-.07Z"/><path class="cls-3" d="M5.69,215.22H31.74c.64,0,.47-1-.13-1h-26c-.64,0-.48,1,.13,1Z"/><path class="cls-3" d="M8.19,210.82H33c.64,0,.47-1-.13-1H8.06c-.64,0-.48,1,.13,1Z"/><path class="cls-3" d="M98.69,210.37c0,1.43,0,2.86,0,4.28a.53.53,0,0,0,.42.56c.23,0,.55-.12.55-.39,0-1.5,0-3,0-4.52a.52.52,0,0,0-.55-.44.45.45,0,0,0-.42.51Z"/><path class="cls-3" d="M76.89,237.75l-.18,2.71,0,.39a.51.51,0,0,0,.42.56.46.46,0,0,0,.55-.39l.17-2.71,0-.39a.54.54,0,0,0-.43-.56.46.46,0,0,0-.54.39Z"/><path class="cls-3" d="M80,241.37c4.31,0,8.64-.26,13-.5.64,0,.47-1-.13-1-4.31.23-8.64.5-13,.5-.64,0-.48,1,.13,1Z"/><path class="cls-3" d="M72.36,240.9,72.23,238l0-.41a.53.53,0,0,0-.55-.45.47.47,0,0,0-.42.52l.13,2.86,0,.41a.52.52,0,0,0,.55.45.47.47,0,0,0,.42-.52Z"/><path class="cls-3" d="M92.81,245.61a77.41,77.41,0,0,1-12.83,0,.48.48,0,0,0-.12.95,78.26,78.26,0,0,0,13.08,0c.64,0,.47-1-.13-1Z"/><path class="cls-3" d="M55.86,240.81q6.54.41,13.08.56c.64,0,.47-1-.13-1q-6.42-.15-12.83-.55c-.64,0-.74.91-.12.95Z"/><path class="cls-3" d="M55.86,246.26a78.26,78.26,0,0,0,13.08,0c.64-.06.47-1-.13-1a77.41,77.41,0,0,1-12.83,0,.48.48,0,0,0-.12.95Z"/></g><g id="Layer0_7_MEMBER_4_FILL" data-name="Layer0 7 MEMBER 4 FILL"><path class="cls-13" d="M79.87,79.34c.34,0,.57-.2.7-.6s-.35-.94-1-1.4-1-.37-1,.4c0-.07.12.16.35.7s.69.9,1.05.9M26.32,51.84v.35c.1.2.34.3.7.3s.6-.22.6-.65-.21-.7-.65-.7-.65.23-.65.7m1.9-2.2q.66,0,2-3c0-1.17-.43-1.15-1.3,0A6.87,6.87,0,0,0,27.52,49a1.23,1.23,0,0,0,.05.35.73.73,0,0,0,.65.3m93.7,1.15c-.43,0-.65.25-.65.75v.35q.15.3.75.3c.37,0,.55-.24.55-.7s-.21-.7-.65-.7m-1.25-1.15q.6,0,.6-.9a4,4,0,0,0-1-2.5c-.73-.9-1.1-.82-1.1.25a18.24,18.24,0,0,0,1.55,3.15m-69.2,3.15c.67,0,1-.42.85-1.25s-.26-1.34-.8-1.2-.85.5-.85,1.2v.65a.74.74,0,0,0,.8.6M49.47,63q1,0,1.55-5.85,0-3.9-1.15-.95a14.05,14.05,0,0,0-1.2,5.35v.75a.74.74,0,0,0,.8.7M96.22,48.79c.1.33.38.5.85.5s.85-.37.85-1.1-.28-1-.85-1-.85.38-.85,1.05v.55m-.5-3.7c.57,0,.85-.34.85-1a13.63,13.63,0,0,0-1.7-4c-1.16-2.14-1.75-2.3-1.75-.5l.85,2.7c.67,1.83,1.25,2.75,1.75,2.75M85.37,21.64l1.2,2.75c.9,1.83,1.62,2.75,2.15,2.75.37,0,.59-.12.65-.35a1.34,1.34,0,0,0,0-.5,37,37,0,0,0-2-3.95c-1.36-2.27-2-2.5-2-.7m-4.1-10.7c-.63-.54-1-.4-1,.4l.35.9c.34.63.65.95,1,.95A.64.64,0,0,0,82,13a.62.62,0,0,0,.2-.45,2.19,2.19,0,0,0-1-1.65m-1.2-1.8a2.43,2.43,0,0,0,.05-.65,3.37,3.37,0,0,0-1.65-2.85c-1.1-.77-1.65-.54-1.65.7,0,0,.22.55.65,1.55s1.2,1.55,1.9,1.55C79.74,9.44,80,9.34,80.07,9.14Z"/></g><g id="Layer0_5_FILL-2" data-name="Layer0 5 FILL"><path class="cls-1" d="M86,331.26c-.61,0-1-1.16-1.11-3.44,0-2.1,0-3.15,0-3.2,0-2,.07-4.27.64-4.27.13,0,.28.15.44.47.55,1.12.83,3.26.83,6.33v2.12C86.66,330.93,86.29,331.26,86,331.26Zm-.78-15.56c-.52-2.61-1.08-6.83-1.66-12.53-.41-4-.73-7.4-.95-10.25l-.9,3.32-.22.83-.09-1c-.1-1.08-.19-2.5-.26-4.22-.09-2.37-.14-4.6-.14-6.61,0-3.46,0-5.73.06-6.74.05-2.2.17-4.4.37-6.55-.21.44-.54,1.21-1.11,2.56a4,4,0,0,1-.22.46l-.28.49v-.84c0-3,.29-6.78.75-11.3.39-3.95.91-8.27,1.56-12.83l0-.28h6.36l0,.27c.66,4.56,1.19,8.88,1.59,12.84.46,4.52.7,8.35.72,11.38V276l-.31-1a3.72,3.72,0,0,0-.16-.44c-.56-1.35-.9-2.13-1.1-2.56.2,2.15.32,4.35.37,6.56,0,1,.06,3.21.06,6.73,0,2-.05,4.22-.14,6.61-.08,1.75-.18,3.2-.29,4.3l-.1,1L89,296.3c-.23-.95-.53-2.08-.89-3.44-.2,2.88-.51,6.34-.93,10.31-.59,5.7-1.15,9.92-1.66,12.53l-.16.77ZM81.75,308c-.25,0-.57-.32-.65-1.85v-1.7c0-2.16.2-3.32.62-3.55a.25.25,0,0,1,.12,0c.51,0,.57,1.92.57,3.59a9.07,9.07,0,0,1-.18,3.07C82.1,307.83,81.94,308,81.75,308ZM91.92,285.9c-.25,0-.48-.61-.82-3.59-.21-1.93-.32-3.1-.32-3.6s0-2,.36-2c.19,0,.39.49.67,1.68a24.06,24.06,0,0,1,.73,5.47C92.54,285.63,92.15,285.9,91.92,285.9Zm-12.45-1.24c-.38,0-.52-.44-.58-.81s0-.71,0-.76a6.94,6.94,0,0,1,.6-3c.15-.36.29-.53.41-.53.38,0,.38,1.3.38,1.72C80.24,283.54,80,284.66,79.47,284.66Z"/><path class="cls-2" d="M82.32,250.66H80.16q-1,7.87-2.31,22.44t-1.56,24.08l1.73-3.9q.33-.57.57-1-.69,4.14-1.22,11.56T76.75,317c.76-1.47,1.38-2.75,1.87-3.83a2.12,2.12,0,0,0,.11-.21,47.44,47.44,0,0,0-.68,8.49q0,5.13,1,21.14t6.73,42.83q5.13-26.76,6-43.65t.8-20.32q-.15-3.42-.43-8a8.68,8.68,0,0,0,1.71,2.46q0-4.22-.46-11.83a83.69,83.69,0,0,0-1.39-11.77l.6,1c.32.74.92,2.06,1.79,4q-.21-10.17-1.57-24.49t-2.35-22.1H88.42q1,6.84,1.6,12.79.67,6.78.71,11.29c-.06-.18-.12-.34-.17-.48-.74-1.77-1.2-2.8-1.37-3.07l-.14-.28c.26,2.51.43,5.06.48,7.66,0,1,.06,3.24.06,6.71q0,3-.14,6.57c-.08,1.73-.17,3.14-.29,4.24-.26-1.1-.61-2.44-1-4a2.76,2.76,0,0,0-.08-.27q-.28,4.59-1,11.29-.87,8.55-1.65,12.45-.76-3.9-1.64-12.45-.7-6.72-1-11.29a2.56,2.56,0,0,1,0,.27c-.45,1.62-.81,2.94-1.08,4-.1-1.06-.19-2.45-.26-4.17q-.13-3.56-.14-6.57c0-3.47,0-5.7.06-6.71.06-2.59.22-5.15.48-7.66l-.14.28c-.17.27-.63,1.3-1.37,3.07a3.13,3.13,0,0,1-.2.41c0-2.95.28-6.69.74-11.22q.59-5.93,1.57-12.79m-2.25,30.65q0,2.94-.6,2.94c-.22,0-.37-.18-.42-.54s0-.57,0-.62a6.3,6.3,0,0,1,.54-2.67c.34-.77.51-.48.51.89m12.3,2.53q0,1.65-.45,1.65c-.19,0-.41-1.1-.65-3.29-.21-1.87-.32-3-.32-3.49,0-2.1.24-2.14.71-.14a23.05,23.05,0,0,1,.71,5.27M81.75,301.29q.48-.35.48,3.15c.11,2.1,0,3.14-.48,3.14-.27,0-.43-.5-.49-1.5v-1.64c0-1.92.17-3,.49-3.15m4.09,19.84q.76,1.58.77,6v2.12c-.08,1.05-.28,1.58-.6,1.58-.51,0-.83-1-.94-3.08s0-3.1,0-3.15C85,321.25,85.31,320.08,85.84,321.13Z"/></g><g id="Layer0_5_1_STROKES-2" data-name="Layer0 5 1 STROKES"><path class="cls-3" d="M82.42,251.11h8.2l-.55-.45c.7,5.33,1.25,10.67,1.78,16,.69,6.9,1.32,13.81,1.73,20.74.19,3.24.33,6.49.4,9.73h.89a51.86,51.86,0,0,0-2.39-5c-.21-.36-1-.49-.88.12A82.36,82.36,0,0,1,93,304.08c.25,3.89.48,7.78.43,11.67l.82-.11a9.46,9.46,0,0,1-1.64-2.32c-.15-.31-.92-.54-.88,0,.22,3.71.5,7.42.42,11.14-.1,4.2-.32,8.4-.54,12.59a286.6,286.6,0,0,1-2.92,28.65c-1,6.54-2.14,13.06-3.39,19.56l.93.1C84,374.83,82,364.21,80.59,353.51c-1.15-9-1.6-18.18-2-27.28A58.84,58.84,0,0,1,79.2,313c.1-.49-.67-.75-.91-.33-.72,1.31-1.3,2.71-2,4l.91.33c.11-4.37.34-8.74.64-13.11.27-3.87.57-7.76,1.22-11.59.07-.38-.63-.82-.85-.43a49.06,49.06,0,0,0-2.37,5l.91.32c.42-12.78,1.59-25.57,2.91-38.29.29-2.75.6-5.49,1-8.23l-.37.34h2.17c.63,0,.35-.9-.18-.9H80.07a.37.37,0,0,0-.38.34C79,256,78.45,261.44,78,266.9c-.64,6.93-1.23,13.87-1.67,20.81-.19,3.12-.35,6.24-.46,9.37,0,.44.7.82.92.32A48.17,48.17,0,0,1,79,292.57l-.86-.42a115.44,115.44,0,0,0-1.22,11.6c-.3,4.36-.54,8.73-.64,13.1,0,.46.67.8.91.33.69-1.33,1.27-2.73,2-4l-.91-.33a54.12,54.12,0,0,0-.6,12c.14,4.45.4,8.9.66,13.34s.58,9,1.11,13.5c.57,4.82,1.3,9.62,2.12,14.4,1.11,6.47,2.39,12.91,3.76,19.33.1.46.82.66.93.11,2.07-10.81,3.91-21.67,5.12-32.61,1-9,1.43-18,1.69-27.07.12-4.1-.14-8.17-.39-12.27h-.89a9.81,9.81,0,0,0,1.77,2.54c.22.22.82.37.82-.12,0-4-.18-8-.44-11.93a81.94,81.94,0,0,0-1.41-11.79l-.88.13a52,52,0,0,1,2.39,5c.15.33.9.52.88,0-.26-12.9-1.55-25.79-3-38.61-.3-2.7-.61-5.4-1-8.1a.58.58,0,0,0-.55-.44h-8.2C81.61,250.21,81.88,251.11,82.42,251.11Z"/></g><g id="Layer0_5_FILL-3" data-name="Layer0 5 FILL"><path class="cls-1" d="M63.53,330.46c-.6,0-1-1.16-1.1-3.43,0-2.11,0-3.16,0-3.21,0-2,.07-4.27.63-4.27.14,0,.28.15.44.47.55,1.13.83,3.26.83,6.34v2.12C64.18,330.13,63.82,330.46,63.53,330.46Zm-.78-15.56c-.51-2.61-1.07-6.83-1.65-12.53-.42-4-.74-7.4-1-10.25-.36,1.33-.67,2.44-.91,3.33l-.22.82-.09-1c-.09-1.07-.18-2.49-.25-4.22-.1-2.37-.15-4.59-.15-6.61,0-3.46,0-5.73.06-6.74,0-2.2.18-4.4.37-6.55-.2.44-.54,1.21-1.1,2.57a3.77,3.77,0,0,1-.22.45l-.28.49v-.83c0-3,.28-6.78.74-11.31.39-3.95.92-8.27,1.57-12.83l0-.28h6.35l0,.28c.66,4.55,1.2,8.87,1.6,12.83.45,4.53.69,8.36.71,11.38v1.25l-.32-1c0-.16-.1-.31-.15-.43-.57-1.36-.9-2.13-1.1-2.57.19,2.16.32,4.36.37,6.57,0,1,0,3.21,0,6.72,0,2,0,4.23-.14,6.61-.08,1.75-.17,3.2-.29,4.3l-.1,1-.21-.87c-.23-.95-.52-2.08-.89-3.43-.2,2.87-.51,6.33-.93,10.3-.58,5.71-1.14,9.92-1.66,12.53l-.15.78Zm-3.48-7.7c-.25,0-.56-.32-.65-1.86v-1.7c0-2.15.2-3.31.61-3.55a.28.28,0,0,1,.12,0c.51,0,.57,1.92.57,3.59a8.54,8.54,0,0,1-.18,3.07C59.63,307,59.46,307.2,59.27,307.2Zm10.17-22.1c-.25,0-.48-.61-.81-3.59-.22-1.92-.32-3.1-.32-3.6,0-.65,0-2,.35-2s.39.48.68,1.67a24.65,24.65,0,0,1,.73,5.48C70.07,284.83,69.68,285.1,69.44,285.1ZM57,283.87c-.38,0-.53-.45-.59-.82s0-.71,0-.76a6.94,6.94,0,0,1,.6-3c.16-.36.29-.53.42-.53.38,0,.38,1.3.38,1.72C57.77,282.74,57.51,283.87,57,283.87Z"/><path class="cls-2" d="M59.84,249.86H57.68q-1,7.88-2.3,22.44t-1.56,24.09c.82-1.88,1.4-3.19,1.73-3.9.21-.39.4-.73.57-1q-.7,4.16-1.22,11.56t-.63,13.14c.76-1.47,1.39-2.75,1.88-3.83l.11-.21a46.61,46.61,0,0,0-.68,8.49q0,5.14,1,21.14t6.74,42.83q5.11-26.76,6-43.65t.79-20.32q-.14-3.42-.42-8a8.51,8.51,0,0,0,1.7,2.47q.06-4.23-.45-11.84a85.42,85.42,0,0,0-1.39-11.77c.19.32.38.66.59,1,.32.73.92,2.05,1.79,4q-.21-10.17-1.56-24.5t-2.36-22.1H66q1,6.84,1.59,12.8c.45,4.51.69,8.28.71,11.29a4.29,4.29,0,0,0-.17-.48c-.74-1.78-1.19-2.81-1.36-3.08l-.15-.28q.41,3.76.49,7.67c0,1,0,3.24,0,6.7,0,2,0,4.2-.14,6.57-.07,1.73-.17,3.15-.28,4.24-.27-1.09-.62-2.44-1-4a1.52,1.52,0,0,0-.09-.28q-.28,4.59-1,11.29-.89,8.57-1.65,12.45-.78-3.89-1.65-12.45-.7-6.72-1-11.29a1.4,1.4,0,0,1-.06.28l-1.08,4c-.1-1.05-.18-2.44-.25-4.17q-.15-3.56-.15-6.57c0-3.46,0-5.7.06-6.7q.09-3.9.48-7.67l-.14.28c-.17.27-.62,1.3-1.36,3.08-.07.15-.13.28-.2.41q0-4.44.74-11.22.59-5.93,1.56-12.8M57.6,280.51c0,2-.2,2.95-.6,2.95-.23,0-.37-.19-.43-.55s0-.57,0-.62a6.23,6.23,0,0,1,.54-2.66c.34-.78.52-.48.52.88m12.3,2.54c0,1.09-.15,1.64-.46,1.64s-.4-1.1-.65-3.29c-.21-1.87-.31-3-.31-3.49,0-2.09.23-2.14.71-.13a23.48,23.48,0,0,1,.71,5.27M59.27,300.49q.48-.35.48,3.15.18,3.15-.48,3.15c-.26,0-.42-.5-.48-1.51v-1.64c0-1.92.16-3,.48-3.15m4.09,19.85q.77,1.56.77,6v2.12c-.08,1-.27,1.57-.6,1.57-.51,0-.82-1-.93-3.08s0-3.1,0-3.15Q62.57,318.77,63.36,320.34Z"/></g><g id="Layer0_5_1_STROKES-3" data-name="Layer0 5 1 STROKES"><path class="cls-3" d="M59.94,250.31h8.2l-.55-.44c.7,5.32,1.26,10.66,1.79,16,.68,6.9,1.32,13.81,1.72,20.74.19,3.24.34,6.49.4,9.74h.89a50.84,50.84,0,0,0-2.38-5c-.22-.36-1-.49-.88.13a82.34,82.34,0,0,1,1.4,11.82c.26,3.88.48,7.78.43,11.67l.83-.12a9,9,0,0,1-1.64-2.32c-.15-.31-.92-.53-.89,0,.23,3.71.51,7.42.42,11.14-.09,4.2-.31,8.4-.53,12.6-.5,9.61-1.47,19.13-2.92,28.64-1,6.55-2.15,13.06-3.39,19.56l.93.11c-2.26-10.55-4.29-21.17-5.65-31.87-1.15-9-1.61-18.18-1.95-27.28a57.73,57.73,0,0,1,.56-13.2.5.5,0,0,0-.91-.32c-.73,1.3-1.31,2.7-2,4l.91.33c.1-4.37.34-8.74.64-13.1a112.6,112.6,0,0,1,1.22-11.6c.06-.37-.63-.82-.86-.42a53.5,53.5,0,0,0-2.37,5l.91.33c.43-12.79,1.59-25.58,2.92-38.3.29-2.74.59-5.49.95-8.23l-.38.34h2.17c.64,0,.36-.9-.18-.9H57.59a.39.39,0,0,0-.38.34c-.7,5.44-1.24,10.9-1.74,16.35-.64,6.93-1.23,13.87-1.66,20.82-.2,3.12-.36,6.24-.46,9.36,0,.44.69.82.91.33a51.81,51.81,0,0,1,2.26-4.83l-.86-.43c-.65,3.83-.95,7.73-1.22,11.6-.3,4.36-.53,8.73-.64,13.1,0,.46.67.8.91.33.69-1.33,1.27-2.73,2-4l-.91-.32a54.12,54.12,0,0,0-.6,12c.14,4.44.4,8.89.66,13.33s.59,9,1.12,13.5c.57,4.82,1.3,9.62,2.12,14.4,1.11,6.47,2.39,12.92,3.76,19.34.09.45.82.65.92.1,2.07-10.8,3.92-21.67,5.13-32.61,1-9,1.42-18,1.69-27.07.12-4.1-.14-8.17-.4-12.26h-.88a9.46,9.46,0,0,0,1.77,2.53c.21.22.81.37.82-.12,0-4-.19-8-.45-11.93A81.64,81.64,0,0,0,70,291.46l-.88.12a50.92,50.92,0,0,1,2.39,5c.15.32.9.51.89,0-.27-12.91-1.56-25.8-3-38.62-.29-2.7-.6-5.4-1-8.09a.58.58,0,0,0-.55-.45h-8.2C59.13,249.41,59.41,250.31,59.94,250.31Z"/></g></g></g></svg>